<svg width="256" height="80" viewBox="0 0 256 80" fill="none" xmlns="http://www.w3.org/2000/svg">
<path d="M168.56 42.6922H162.589L163.651 37.3308H169.588L168.56 42.6922ZM173.469 44.1701L175.426 34.5127C175.459 34.3408 175.426 34.1346 175.36 34.1002C175.294 34.0315 175.128 33.894 174.995 33.894H160.035C159.471 33.894 158.874 34.4096 158.774 34.9595C158.774 34.9595 157.779 39.8053 156.651 45.1667H172.275C172.739 45.1667 173.336 44.6856 173.469 44.1701Z" fill="white"/>
<path d="M179.402 51.8791H174.146C173.757 53.8225 172.816 58.6647 172.816 58.6647C172.718 58.8623 172.653 59.0599 172.621 59.2576H194.944C194.912 58.8952 194.912 58.5988 194.944 58.2035L196.859 48.9804C197.215 47.3993 198.643 46.2464 200.168 46.2464H217.073C218.371 40.1855 219.571 34.4211 219.571 34.4211C219.604 34.2234 219.604 34.0917 219.506 33.9929C219.441 33.927 219.279 33.894 219.149 33.894H203.64C203.088 33.894 202.504 34.3552 202.407 34.8822L201.044 41.2725H205.457L206.3 37.3198H213.666L212.238 43.9736H200.363C195.269 44.1053 192.576 45.3241 191.083 51.5497L190.369 55.0084H178.753L179.402 51.8791Z" fill="white"/>
<path d="M100.922 32.6125L100.453 34.7376H95.093C92.6809 46.1149 89.9673 58.6365 89.9673 58.6365C89.9338 58.8326 89.9673 58.9961 90.0678 59.0942C90.1683 59.1923 90.3358 59.2576 90.4363 59.2576H94.3224H116.601L121.894 34.5741H112.815L111.978 38.3666H115.462L111.81 55.0402H108.661H108.326H95.696L99.3476 38.3666H102.966L105.076 28.5913H101.425L104.004 16.9851H98.9121C98.5101 18.914 97.103 25.4854 95.5955 32.6125H100.922Z" fill="white"/>
<path d="M202.946 50.3075H210.7L209.499 55.9097H201.746L202.946 50.3075ZM198.075 49.0436C198.075 49.0436 196.119 58.6083 196.119 58.6424C196.085 58.8132 196.119 59.0182 196.188 59.0865C196.257 59.189 196.462 59.2573 196.565 59.2573H214.371C214.68 57.5835 215.709 52.9378 216.772 47.9846H199.379C198.864 47.9846 198.246 48.4629 198.075 49.0436Z" fill="white"/>
<path d="M139.213 33.1436C139.669 33.7378 139.864 34.5632 139.701 35.3885L138.53 40.9018H136.317L137.586 34.9263C137.651 34.7283 137.586 34.5632 137.553 34.4972C137.488 34.3651 137.326 34.3321 137.163 34.3321H123.918L118.874 59.2574H151.579C151.514 58.8943 151.514 58.5972 151.579 58.201L156.656 34.3321C157.014 32.8135 158.413 31.592 159.975 31.592H174.652C175.433 31.592 176.181 31.9551 176.637 32.5824C177.092 33.1766 177.288 33.9689 177.092 34.7613L175.172 44.0381C174.88 45.5568 173.415 46.7122 171.951 46.7122H156.2C154.931 52.6877 153.662 58.6302 153.662 58.6302C153.597 58.7952 153.597 58.9603 153.694 59.0594C153.792 59.1584 153.987 59.2244 154.085 59.2244H168.501C169.087 59.2244 169.705 58.6632 169.835 58.168L171.17 51.8293H166.288L165.442 55.9891H159.585L161.016 49.1552H179.078L181.583 36.9732C183.015 29.8752 180.998 28.3236 173.838 28.2576H160.561C158.283 28.2576 154.768 28.2576 152.393 31.724C151.026 33.6388 150.538 36.0818 150.05 38.3928L146.6 55.0317H125.155L128.702 38.1947H132.965L131.728 44.2032H141.751L143.606 35.1574C143.867 33.5398 144.257 31.757 143.086 30.1724C141.882 28.3896 139.669 28.3896 137.749 28.3236H134.625H130.72H114.253L113.44 32.1862H137.195C138.009 32.2192 138.758 32.5824 139.213 33.1436Z" fill="white"/>
<path d="M226.31 37.4973C226.729 35.4463 227.116 33.235 225.923 31.4403C224.44 29.2611 221.796 29.2611 219.507 29.197H205.319C203.062 29.2611 200.45 29.3252 198.129 31.3122C196.129 33.1389 195.549 35.4463 195.13 37.3371L194.227 41.7596H198.774C199.031 40.4457 200.257 35.1258 200.257 35.1258C200.579 33.6837 201.998 32.53 203.546 32.53H218.959C219.765 32.53 220.474 32.8184 220.958 33.3952C221.474 34.0041 221.57 34.8053 221.474 35.5424L216.347 59.2575H235.597L236.5 55.1234H222.538L226.31 37.4973Z" fill="white"/>
<path d="M154.315 61.7612H94.7261H90.9197H63.127C62.3067 61.7612 61.552 61.4053 61.0598 60.8553C60.6004 60.2729 60.4363 59.4964 60.6004 58.6875L64.1442 42.3486H40.9125L30.7732 69.5909H35.892L43.9313 47.2665H57.5487L55.5471 56.3257C55.0549 58.5258 55.5471 60.7259 56.9581 62.4406C58.3691 64.1878 60.5019 65.1584 62.7332 65.1584H234.838L235.56 61.7612H168.851H154.315Z" fill="white"/>
<path d="M43.3524 28.4437V28.411L43.4502 28.3782C48.794 18.227 55.8323 14.756 70.2999 15.0834L71.6358 15.1162L71.3426 16.3605C71.3426 16.3605 62.4796 58.7008 62.4796 58.799C62.447 58.8318 62.447 59.0282 62.5121 59.0937C62.5773 59.192 62.7077 59.2575 62.9032 59.2575H87.9607C87.9281 58.8973 87.9281 58.6025 87.9607 58.2096L92.9136 34.6981H87.0809L87.5371 32.5697H93.3372L96.5305 16.9172H90.8607L88.3517 28.5419H84.9304L82.8775 38.3329H86.3315L82.8775 54.4438H67.8886C70.2673 43.474 75.6437 17.5394 75.6437 17.5394L77.1426 10.5973L70.0718 10.4335C54.0727 10.0406 45.8288 14.363 39.54 26.217L39.3771 26.479L39.3119 26.7082L35.9557 35.0583H19.5005V39.5445H39.3119L43.3524 28.4437Z" fill="white"/>
<path d="M63.0289 22.229L60.2722 35.0156H48.9537L50.4455 31.3905C53.3319 25.7552 56.1535 22.9869 63.0289 22.229ZM45.8079 29.1166L42.0458 39.5305H64.6505L69.2881 16.9891C56.5751 16.8573 50.5428 19.988 45.8079 29.1166Z" fill="white"/>
<path d="M19.5005 42.3486V47.2665H31.1142L23.0071 69.5909H28.3797L38.2883 42.3486H19.5005Z" fill="white"/>
</svg>
