<svg width="48" height="48" viewBox="0 0 48 48" fill="none" xmlns="http://www.w3.org/2000/svg">
<path d="M4 16V6H46V36H28" stroke="#72869D" stroke-width="4" stroke-miterlimit="10" stroke-linecap="square"/>
<path d="M12 38C15.3137 38 18 35.3137 18 32C18 28.6863 15.3137 26 12 26C8.68629 26 6 28.6863 6 32C6 35.3137 8.68629 38 12 38Z" stroke="#72869D" stroke-width="4" stroke-miterlimit="10" stroke-linecap="square"/>
<path d="M12 26V22" stroke="#72869D" stroke-width="4" stroke-miterlimit="10" stroke-linecap="square"/>
<path d="M16.2422 27.758L19.0722 24.928" stroke="#72869D" stroke-width="4" stroke-miterlimit="10" stroke-linecap="square"/>
<path d="M18 32H22" stroke="#72869D" stroke-width="4" stroke-miterlimit="10" stroke-linecap="square"/>
<path d="M16.2422 36.2419L19.0722 39.0719" stroke="#72869D" stroke-width="4" stroke-miterlimit="10" stroke-linecap="square"/>
<path d="M12 38V42" stroke="#72869D" stroke-width="4" stroke-miterlimit="10" stroke-linecap="square"/>
<path d="M7.75773 36.2419L4.92773 39.0719" stroke="#72869D" stroke-width="4" stroke-miterlimit="10" stroke-linecap="square"/>
<path d="M6 32H2" stroke="#72869D" stroke-width="4" stroke-miterlimit="10" stroke-linecap="square"/>
<path d="M7.75773 27.758L4.92773 24.928" stroke="#72869D" stroke-width="4" stroke-miterlimit="10" stroke-linecap="square"/>
</svg>
