<svg width="40" height="40" viewBox="0 0 40 40" fill="none" xmlns="http://www.w3.org/2000/svg">
<path d="M8.75146 8.125C8.62785 8.125 8.50701 8.16166 8.40423 8.23033C8.30145 8.29901 8.22135 8.39662 8.17404 8.51082C8.12674 8.62503 8.11436 8.75069 8.13847 8.87193C8.16259 8.99317 8.22212 9.10453 8.30952 9.19194C8.39693 9.27935 8.5083 9.33887 8.62953 9.36299C8.75077 9.38711 8.87644 9.37473 8.99064 9.32742C9.10485 9.28012 9.20246 9.20001 9.27113 9.09723C9.33981 8.99445 9.37646 8.87361 9.37646 8.75C9.37646 8.58424 9.31062 8.42527 9.19341 8.30806C9.0762 8.19085 8.91723 8.125 8.75146 8.125" stroke="#72869D" stroke-width="2" stroke-linecap="round" stroke-linejoin="round"/>
<path d="M8.75146 23.125C8.62785 23.125 8.50701 23.1617 8.40423 23.2303C8.30145 23.299 8.22135 23.3966 8.17404 23.5108C8.12674 23.625 8.11436 23.7507 8.13847 23.8719C8.16259 23.9932 8.22212 24.1045 8.30952 24.1919C8.39693 24.2794 8.5083 24.3389 8.62953 24.363C8.75077 24.3871 8.87644 24.3747 8.99064 24.3274C9.10485 24.2801 9.20246 24.2 9.27113 24.0972C9.33981 23.9945 9.37646 23.8736 9.37646 23.75C9.37646 23.5842 9.31062 23.4253 9.19341 23.3081C9.0762 23.1908 8.91723 23.125 8.75146 23.125" stroke="#72869D" stroke-width="2" stroke-linecap="round" stroke-linejoin="round"/>
<path d="M16.2515 16.25H8.75146C6.76234 16.25 4.85469 15.4598 3.44816 14.0533C2.04164 12.6468 1.25146 10.7391 1.25146 8.75C1.25146 6.76088 2.04164 4.85322 3.44816 3.4467C4.85469 2.04018 6.76234 1.25 8.75146 1.25H28.7515C30.2619 1.24913 31.7373 1.70432 32.9847 2.55598C34.2321 3.40764 35.1933 4.61608 35.7425 6.02311C36.2916 7.43014 36.4032 8.9702 36.0625 10.4417C35.7218 11.9132 34.9448 13.2475 33.8331 14.27" stroke="#72869D" stroke-width="2" stroke-linecap="round" stroke-linejoin="round"/>
<path d="M12.4998 31.25H8.75146C6.76234 31.25 4.85469 30.4598 3.44816 29.0533C2.04164 27.6468 1.25146 25.7391 1.25146 23.75C1.25146 21.7609 2.04164 19.8532 3.44816 18.4467C4.85469 17.0402 6.76234 16.25 8.75146 16.25H16.2515" stroke="#72869D" stroke-width="2" stroke-linecap="round" stroke-linejoin="round"/>
<path d="M17.5015 8.75H28.7515" stroke="#72869D" stroke-width="2" stroke-linecap="round" stroke-linejoin="round"/>
<path d="M26.2515 35C31.084 35 35.0015 31.0825 35.0015 26.25C35.0015 21.4175 31.084 17.5 26.2515 17.5C21.419 17.5 17.5015 21.4175 17.5015 26.25C17.5015 31.0825 21.419 35 26.2515 35Z" stroke="#72869D" stroke-width="2" stroke-linecap="round" stroke-linejoin="round"/>
<path d="M38.7513 38.75L32.438 32.4366" stroke="#72869D" stroke-width="2" stroke-linecap="round" stroke-linejoin="round"/>
</svg>
