<svg width="40" height="40" viewBox="0 0 40 40" fill="none" xmlns="http://www.w3.org/2000/svg">
<g clip-path="url(#clip0)">
<path d="M3.16309 29.1667L16.6664 29.1684" stroke="#72869D" stroke-width="2" stroke-linecap="round" stroke-linejoin="round"/>
<path d="M4.18652 9.16669H35.8265" stroke="#72869D" stroke-width="2" stroke-linecap="round" stroke-linejoin="round"/>
<path d="M18.3332 19.1667H0.851562" stroke="#72869D" stroke-width="2" stroke-linecap="round" stroke-linejoin="round"/>
<path d="M18.9633 39.14C15.2587 38.9358 11.6929 37.6607 8.69876 35.4694C5.70462 33.2782 3.41085 30.265 2.09581 26.7956C0.780774 23.3262 0.500999 19.5496 1.29044 15.9243C2.07988 12.2989 3.9046 8.98064 6.54316 6.37212C9.18172 3.76361 12.5207 1.977 16.1548 1.22911C19.789 0.481227 23.5621 0.804222 27.0162 2.1589C30.4704 3.51357 33.4571 5.84169 35.6139 8.86071C37.7707 11.8797 39.0049 15.4599 39.1667 19.1666" stroke="#72869D" stroke-width="2" stroke-linecap="round" stroke-linejoin="round"/>
<path d="M18.7819 0.876648C8.78186 11.71 8.96352 25.8066 18.9635 39.14" stroke="#72869D" stroke-width="2" stroke-linecap="round" stroke-linejoin="round"/>
<path d="M21.2168 0.876648C25.1565 4.96908 27.6881 10.2115 28.4435 15.8416" stroke="#72869D" stroke-width="2" stroke-linecap="round" stroke-linejoin="round"/>
<path d="M28.3818 35.93C32.5507 35.93 35.9302 32.5505 35.9302 28.3816C35.9302 24.2128 32.5507 20.8333 28.3818 20.8333C24.213 20.8333 20.8335 24.2128 20.8335 28.3816C20.8335 32.5505 24.213 35.93 28.3818 35.93Z" stroke="#72869D" stroke-width="2" stroke-linecap="round" stroke-linejoin="round"/>
<path d="M39.1668 39.1666L33.7534 33.7533" stroke="#72869D" stroke-width="2" stroke-linecap="round" stroke-linejoin="round"/>
</g>
<defs>
<clipPath id="clip0">
<rect width="40" height="40" fill="white"/>
</clipPath>
</defs>
</svg>
