<svg width="40" height="40" viewBox="0 0 40 40" fill="none" xmlns="http://www.w3.org/2000/svg">
<path d="M1.25 21.25V23.75H3.75" stroke="#72869D" stroke-width="2" stroke-linecap="round" stroke-linejoin="round"/>
<path d="M1.25 1.25H11.25V11.25H1.25V1.25Z" stroke="#72869D" stroke-width="2" stroke-linecap="round" stroke-linejoin="round"/>
<path d="M28.75 1.25H38.75V11.25H28.75V1.25Z" stroke="#72869D" stroke-width="2" stroke-linecap="round" stroke-linejoin="round"/>
<path d="M1.25 28.75H11.25V38.75H1.25V28.75Z" stroke="#72869D" stroke-width="2" stroke-linecap="round" stroke-linejoin="round"/>
<path d="M20 1.25H23.75" stroke="#72869D" stroke-width="2" stroke-linecap="round" stroke-linejoin="round"/>
<path d="M16.25 1.25V6.25H20" stroke="#72869D" stroke-width="2" stroke-linecap="round" stroke-linejoin="round"/>
<path d="M23.75 6.25V11.25H16.25" stroke="#72869D" stroke-width="2" stroke-linecap="round" stroke-linejoin="round"/>
<path d="M1.25 16.25H11.25V18.75" stroke="#72869D" stroke-width="2" stroke-linecap="round" stroke-linejoin="round"/>
<path d="M8.75 23.75H11.25" stroke="#72869D" stroke-width="2" stroke-linecap="round" stroke-linejoin="round"/>
<path d="M38.75 38.75H33.75V33.75H38.75V28.75H33.75" stroke="#72869D" stroke-width="2" stroke-linecap="round" stroke-linejoin="round"/>
<path d="M23.75 38.75H16.25V28.75" stroke="#72869D" stroke-width="2" stroke-linecap="round" stroke-linejoin="round"/>
<path d="M28.75 28.75V38.75" stroke="#72869D" stroke-width="2" stroke-linecap="round" stroke-linejoin="round"/>
<path d="M21.25 28.75H23.75V33.75H21.25" stroke="#72869D" stroke-width="2" stroke-linecap="round" stroke-linejoin="round"/>
<path d="M16.25 21.25V23.75H18.75" stroke="#72869D" stroke-width="2" stroke-linecap="round" stroke-linejoin="round"/>
<path d="M23.75 23.75H28.75" stroke="#72869D" stroke-width="2" stroke-linecap="round" stroke-linejoin="round"/>
<path d="M26.25 23.75V18.75" stroke="#72869D" stroke-width="2" stroke-linecap="round" stroke-linejoin="round"/>
<path d="M16.25 16.25H21.25V18.75" stroke="#72869D" stroke-width="2" stroke-linecap="round" stroke-linejoin="round"/>
<path d="M38.75 16.25V18.75" stroke="#72869D" stroke-width="2" stroke-linecap="round" stroke-linejoin="round"/>
<path d="M38.75 22.5V23.75" stroke="#72869D" stroke-width="2" stroke-linecap="round" stroke-linejoin="round"/>
<path d="M31.25 16.25V18.75H33.75V22.5" stroke="#72869D" stroke-width="2" stroke-linecap="round" stroke-linejoin="round"/>
</svg>
